<?xml version="1.0" encoding="UTF-8"?>
<svg version="1.1" xmlns="http://www.w3.org/2000/svg" width="1200" height="1200">
<path d="M0 0 C396 0 792 0 1200 0 C1200 396 1200 792 1200 1200 C804 1200 408 1200 0 1200 C0 804 0 408 0 0 Z " fill="#FEFEFE" transform="translate(0,0)"/>
<path d="M0 0 C47.52 0 95.04 0 144 0 C144 47.52 144 95.04 144 144 C128.16 144 112.32 144 96 144 C96 159.84 96 175.68 96 192 C80.16 192 64.32 192 48 192 C48 207.84 48 223.68 48 240 C32.16 240 16.32 240 0 240 C0 255.84 0 271.68 0 288 C-15.84 288 -31.68 288 -48 288 C-48 303.84 -48 319.68 -48 336 C-63.84 336 -79.68 336 -96 336 C-96 351.84 -96 367.68 -96 384 C-111.84 384 -127.68 384 -144 384 C-144 399.84 -144 415.68 -144 432 C-159.84 432 -175.68 432 -192 432 C-192 447.84 -192 463.68 -192 480 C-207.84 480 -223.68 480 -240 480 C-240 495.84 -240 511.68 -240 528 C-224.16 528 -208.32 528 -192 528 C-192 543.84 -192 559.68 -192 576 C-176.16 576 -160.32 576 -144 576 C-144 607.68 -144 639.36 -144 672 C-175.68 672 -207.36 672 -240 672 C-240 656.16 -240 640.32 -240 624 C-271.68 624 -303.36 624 -336 624 C-336 608.16 -336 592.32 -336 576 C-351.84 576 -367.68 576 -384 576 C-384 591.84 -384 607.68 -384 624 C-399.84 624 -415.68 624 -432 624 C-432 639.84 -432 655.68 -432 672 C-447.84 672 -463.68 672 -480 672 C-480 703.68 -480 735.36 -480 768 C-527.52 768 -575.04 768 -624 768 C-624 720.48 -624 672.96 -624 624 C-592.32 624 -560.64 624 -528 624 C-528 608.16 -528 592.32 -528 576 C-512.16 576 -496.32 576 -480 576 C-480 560.16 -480 544.32 -480 528 C-464.16 528 -448.32 528 -432 528 C-432 512.16 -432 496.32 -432 480 C-447.84 480 -463.68 480 -480 480 C-480 448.32 -480 416.64 -480 384 C-495.84 384 -511.68 384 -528 384 C-528 352.32 -528 320.64 -528 288 C-496.32 288 -464.64 288 -432 288 C-432 303.84 -432 319.68 -432 336 C-416.16 336 -400.32 336 -384 336 C-384 351.84 -384 367.68 -384 384 C-368.16 384 -352.32 384 -336 384 C-336 368.16 -336 352.32 -336 336 C-320.16 336 -304.32 336 -288 336 C-288 320.16 -288 304.32 -288 288 C-272.16 288 -256.32 288 -240 288 C-240 272.16 -240 256.32 -240 240 C-224.16 240 -208.32 240 -192 240 C-192 224.16 -192 208.32 -192 192 C-176.16 192 -160.32 192 -144 192 C-144 176.16 -144 160.32 -144 144 C-128.16 144 -112.32 144 -96 144 C-96 128.16 -96 112.32 -96 96 C-80.16 96 -64.32 96 -48 96 C-48 80.16 -48 64.32 -48 48 C-32.16 48 -16.32 48 0 48 C0 32.16 0 16.32 0 0 Z " fill="#A5FCF0" transform="translate(888,216)"/>
<path d="M0 0 C31.68 0 63.36 0 96 0 C96 15.84 96 31.68 96 48 C111.84 48 127.68 48 144 48 C144 63.84 144 79.68 144 96 C159.84 96 175.68 96 192 96 C192 127.68 192 159.36 192 192 C223.68 192 255.36 192 288 192 C288 207.84 288 223.68 288 240 C303.84 240 319.68 240 336 240 C336 255.84 336 271.68 336 288 C351.84 288 367.68 288 384 288 C384 319.68 384 351.36 384 384 C352.32 384 320.64 384 288 384 C288 368.16 288 352.32 288 336 C256.32 336 224.64 336 192 336 C192 320.16 192 304.32 192 288 C176.16 288 160.32 288 144 288 C144 303.84 144 319.68 144 336 C128.16 336 112.32 336 96 336 C96 351.84 96 367.68 96 384 C80.16 384 64.32 384 48 384 C48 415.68 48 447.36 48 480 C0.48 480 -47.04 480 -96 480 C-96 432.48 -96 384.96 -96 336 C-64.32 336 -32.64 336 0 336 C0 320.16 0 304.32 0 288 C15.84 288 31.68 288 48 288 C48 272.16 48 256.32 48 240 C63.84 240 79.68 240 96 240 C96 224.16 96 208.32 96 192 C80.16 192 64.32 192 48 192 C48 160.32 48 128.64 48 96 C32.16 96 16.32 96 0 96 C0 64.32 0 32.64 0 0 Z " fill="#092C2D" transform="translate(360,504)"/>
<path d="M0 0 C63.36 0 126.72 0 192 0 C192 31.68 192 63.36 192 96 C176.16 96 160.32 96 144 96 C144 111.84 144 127.68 144 144 C128.16 144 112.32 144 96 144 C96 159.84 96 175.68 96 192 C80.16 192 64.32 192 48 192 C48 207.84 48 223.68 48 240 C0.48 240 -47.04 240 -96 240 C-96 192.48 -96 144.96 -96 96 C-80.16 96 -64.32 96 -48 96 C-48 80.16 -48 64.32 -48 48 C-32.16 48 -16.32 48 0 48 C0 32.16 0 16.32 0 0 Z " fill="#2AC6AC" transform="translate(648,456)"/>
<path d="M0 0 C31.68 0 63.36 0 96 0 C96 15.84 96 31.68 96 48 C111.84 48 127.68 48 144 48 C144 63.84 144 79.68 144 96 C159.84 96 175.68 96 192 96 C192 143.52 192 191.04 192 240 C160.32 240 128.64 240 96 240 C96 224.16 96 208.32 96 192 C80.16 192 64.32 192 48 192 C48 160.32 48 128.64 48 96 C32.16 96 16.32 96 0 96 C0 64.32 0 32.64 0 0 Z " fill="#0D3E37" transform="translate(360,504)"/>
<path d="M0 0 C31.68 0 63.36 0 96 0 C96 15.84 96 31.68 96 48 C111.84 48 127.68 48 144 48 C144 63.84 144 79.68 144 96 C159.84 96 175.68 96 192 96 C192 127.68 192 159.36 192 192 C160.32 192 128.64 192 96 192 C96 176.16 96 160.32 96 144 C64.32 144 32.64 144 0 144 C0 128.16 0 112.32 0 96 C-15.84 96 -31.68 96 -48 96 C-48 80.16 -48 64.32 -48 48 C-32.16 48 -16.32 48 0 48 C0 32.16 0 16.32 0 0 Z " fill="#0B3532" transform="translate(552,696)"/>
<path d="M0 0 C15.84 0 31.68 0 48 0 C48 31.68 48 63.36 48 96 C32.16 96 16.32 96 0 96 C0 127.68 0 159.36 0 192 C15.84 192 31.68 192 48 192 C48 207.84 48 223.68 48 240 C0.48 240 -47.04 240 -96 240 C-96 192.48 -96 144.96 -96 96 C-80.16 96 -64.32 96 -48 96 C-48 80.16 -48 64.32 -48 48 C-32.16 48 -16.32 48 0 48 C0 32.16 0 16.32 0 0 Z " fill="#34E9C9" transform="translate(648,456)"/>
<path d="M0 0 C31.68 0 63.36 0 96 0 C96 31.68 96 63.36 96 96 C80.16 96 64.32 96 48 96 C48 111.84 48 127.68 48 144 C16.32 144 -15.36 144 -48 144 C-48 112.32 -48 80.64 -48 48 C-32.16 48 -16.32 48 0 48 C0 32.16 0 16.32 0 0 Z " fill="#674D1E" transform="translate(408,744)"/>
<path d="M0 0 C15.84 0 31.68 0 48 0 C48 15.84 48 31.68 48 48 C63.84 48 79.68 48 96 48 C96 63.84 96 79.68 96 96 C80.16 96 64.32 96 48 96 C48 111.84 48 127.68 48 144 C0.48 144 -47.04 144 -96 144 C-96 128.16 -96 112.32 -96 96 C-80.16 96 -64.32 96 -48 96 C-48 80.16 -48 64.32 -48 48 C-32.16 48 -16.32 48 0 48 C0 32.16 0 16.32 0 0 Z " fill="#A4FCF0" transform="translate(840,264)"/>
<path d="M0 0 C31.68 0 63.36 0 96 0 C96 47.52 96 95.04 96 144 C64.32 144 32.64 144 0 144 C0 96.48 0 48.96 0 0 Z " fill="#146255" transform="translate(456,600)"/>
<path d="M0 0 C79.2 0 158.4 0 240 0 C240 15.84 240 31.68 240 48 C224.16 48 208.32 48 192 48 C192 63.84 192 79.68 192 96 C176.16 96 160.32 96 144 96 C144 80.16 144 64.32 144 48 C96.48 48 48.96 48 0 48 C0 32.16 0 16.32 0 0 Z " fill="#2AC6AC" transform="translate(696,408)"/>
<path d="M0 0 C15.84 0 31.68 0 48 0 C48 47.52 48 95.04 48 144 C16.32 144 -15.36 144 -48 144 C-48 112.32 -48 80.64 -48 48 C-32.16 48 -16.32 48 0 48 C0 32.16 0 16.32 0 0 Z " fill="#34E9CA" transform="translate(696,504)"/>
<path d="M0 0 C47.52 0 95.04 0 144 0 C144 47.52 144 95.04 144 144 C128.16 144 112.32 144 96 144 C96 112.32 96 80.64 96 48 C64.32 48 32.64 48 0 48 C0 32.16 0 16.32 0 0 Z " fill="#0D3E37" transform="translate(888,216)"/>
<path d="M0 0 C31.68 0 63.36 0 96 0 C96 31.68 96 63.36 96 96 C64.32 96 32.64 96 0 96 C0 64.32 0 32.64 0 0 Z " fill="#0D3E37" transform="translate(264,840)"/>
<path d="M0 0 C15.84 0 31.68 0 48 0 C48 15.84 48 31.68 48 48 C63.84 48 79.68 48 96 48 C96 63.84 96 79.68 96 96 C64.32 96 32.64 96 0 96 C0 64.32 0 32.64 0 0 Z " fill="#674D1E" transform="translate(360,792)"/>
<path d="M0 0 C15.84 0 31.68 0 48 0 C48 31.68 48 63.36 48 96 C16.32 96 -15.36 96 -48 96 C-48 80.16 -48 64.32 -48 48 C-32.16 48 -16.32 48 0 48 C0 32.16 0 16.32 0 0 Z " fill="#34E9C9" transform="translate(648,456)"/>
<path d="M0 0 C47.52 0 95.04 0 144 0 C144 15.84 144 31.68 144 48 C96.48 48 48.96 48 0 48 C0 32.16 0 16.32 0 0 Z " fill="#2AC6AD" transform="translate(744,360)"/>
<path d="M0 0 C31.68 0 63.36 0 96 0 C96 15.84 96 31.68 96 48 C64.32 48 32.64 48 0 48 C0 32.16 0 16.32 0 0 Z " fill="#082C2D" transform="translate(552,792)"/>
<path d="M0 0 C15.84 0 31.68 0 48 0 C48 31.68 48 63.36 48 96 C32.16 96 16.32 96 0 96 C0 64.32 0 32.64 0 0 Z " fill="#082C2D" transform="translate(984,264)"/>
<path d="M0 0 C15.84 0 31.68 0 48 0 C48 15.84 48 31.68 48 48 C32.16 48 16.32 48 0 48 C0 32.16 0 16.32 0 0 Z " fill="#156254" transform="translate(312,888)"/>
<path d="M0 0 C15.84 0 31.68 0 48 0 C48 15.84 48 31.68 48 48 C32.16 48 16.32 48 0 48 C0 32.16 0 16.32 0 0 Z " fill="#281D0C" transform="translate(408,840)"/>
<path d="M0 0 C15.84 0 31.68 0 48 0 C48 15.84 48 31.68 48 48 C32.16 48 16.32 48 0 48 C0 32.16 0 16.32 0 0 Z " fill="#281D0B" transform="translate(456,792)"/>
<path d="M0 0 C15.84 0 31.68 0 48 0 C48 15.84 48 31.68 48 48 C32.16 48 16.32 48 0 48 C0 32.16 0 16.32 0 0 Z " fill="#896726" transform="translate(408,792)"/>
<path d="M0 0 C15.84 0 31.68 0 48 0 C48 15.84 48 31.68 48 48 C32.16 48 16.32 48 0 48 C0 32.16 0 16.32 0 0 Z " fill="#483614" transform="translate(360,792)"/>
<path d="M0 0 C15.84 0 31.68 0 48 0 C48 15.84 48 31.68 48 48 C32.16 48 16.32 48 0 48 C0 32.16 0 16.32 0 0 Z " fill="#0D3E37" transform="translate(648,792)"/>
<path d="M0 0 C15.84 0 31.68 0 48 0 C48 15.84 48 31.68 48 48 C32.16 48 16.32 48 0 48 C0 32.16 0 16.32 0 0 Z " fill="#483614" transform="translate(408,744)"/>
<path d="M0 0 C15.84 0 31.68 0 48 0 C48 15.84 48 31.68 48 48 C32.16 48 16.32 48 0 48 C0 32.16 0 16.32 0 0 Z " fill="#092C2D" transform="translate(504,744)"/>
<path d="M0 0 C15.84 0 31.68 0 48 0 C48 15.84 48 31.68 48 48 C32.16 48 16.32 48 0 48 C0 32.16 0 16.32 0 0 Z " fill="#082C2D" transform="translate(648,744)"/>
<path d="M0 0 C15.84 0 31.68 0 48 0 C48 15.84 48 31.68 48 48 C32.16 48 16.32 48 0 48 C0 32.16 0 16.32 0 0 Z " fill="#208977" transform="translate(504,696)"/>
<path d="M0 0 C15.84 0 31.68 0 48 0 C48 15.84 48 31.68 48 48 C32.16 48 16.32 48 0 48 C0 32.16 0 16.32 0 0 Z " fill="#0D3E36" transform="translate(456,696)"/>
<path d="M0 0 C15.84 0 31.68 0 48 0 C48 15.84 48 31.68 48 48 C32.16 48 16.32 48 0 48 C0 32.16 0 16.32 0 0 Z " fill="#1F8978" transform="translate(552,648)"/>
<path d="M0 0 C15.84 0 31.68 0 48 0 C48 15.84 48 31.68 48 48 C32.16 48 16.32 48 0 48 C0 32.16 0 16.32 0 0 Z " fill="#092C2E" transform="translate(648,648)"/>
<path d="M0 0 C15.84 0 31.68 0 48 0 C48 15.84 48 31.68 48 48 C32.16 48 16.32 48 0 48 C0 32.16 0 16.32 0 0 Z " fill="#34E9C9" transform="translate(600,648)"/>
<path d="M0 0 C15.84 0 31.68 0 48 0 C48 15.84 48 31.68 48 48 C32.16 48 16.32 48 0 48 C0 32.16 0 16.32 0 0 Z " fill="#1E8A79" transform="translate(600,600)"/>
<path d="M0 0 C15.84 0 31.68 0 48 0 C48 15.84 48 31.68 48 48 C32.16 48 16.32 48 0 48 C0 32.16 0 16.32 0 0 Z " fill="#092B2E" transform="translate(696,600)"/>
<path d="M0 0 C15.84 0 31.68 0 48 0 C48 15.84 48 31.68 48 48 C32.16 48 16.32 48 0 48 C0 32.16 0 16.32 0 0 Z " fill="#32EACA" transform="translate(552,600)"/>
<path d="M0 0 C15.84 0 31.68 0 48 0 C48 15.84 48 31.68 48 48 C32.16 48 16.32 48 0 48 C0 32.16 0 16.32 0 0 Z " fill="#34E9C9" transform="translate(648,600)"/>
<path d="M0 0 C15.84 0 31.68 0 48 0 C48 15.84 48 31.68 48 48 C32.16 48 16.32 48 0 48 C0 32.16 0 16.32 0 0 Z " fill="#082C2E" transform="translate(504,600)"/>
<path d="M0 0 C15.84 0 31.68 0 48 0 C48 15.84 48 31.68 48 48 C32.16 48 16.32 48 0 48 C0 32.16 0 16.32 0 0 Z " fill="#092B2E" transform="translate(744,552)"/>
<path d="M0 0 C15.84 0 31.68 0 48 0 C48 15.84 48 31.68 48 48 C32.16 48 16.32 48 0 48 C0 32.16 0 16.32 0 0 Z " fill="#0D3E37" transform="translate(552,552)"/>
<path d="M0 0 C15.84 0 31.68 0 48 0 C48 15.84 48 31.68 48 48 C32.16 48 16.32 48 0 48 C0 32.16 0 16.32 0 0 Z " fill="#0D3E36" transform="translate(456,552)"/>
<path d="M0 0 C15.84 0 31.68 0 48 0 C48 15.84 48 31.68 48 48 C32.16 48 16.32 48 0 48 C0 32.16 0 16.32 0 0 Z " fill="#29C6AC" transform="translate(648,552)"/>
<path d="M0 0 C15.84 0 31.68 0 48 0 C48 15.84 48 31.68 48 48 C32.16 48 16.32 48 0 48 C0 32.16 0 16.32 0 0 Z " fill="#146354" transform="translate(408,552)"/>
<path d="M0 0 C15.84 0 31.68 0 48 0 C48 15.84 48 31.68 48 48 C32.16 48 16.32 48 0 48 C0 32.16 0 16.32 0 0 Z " fill="#092B2E" transform="translate(792,504)"/>
<path d="M0 0 C15.84 0 31.68 0 48 0 C48 15.84 48 31.68 48 48 C32.16 48 16.32 48 0 48 C0 32.16 0 16.32 0 0 Z " fill="#2AC6AC" transform="translate(696,504)"/>
<path d="M0 0 C15.84 0 31.68 0 48 0 C48 15.84 48 31.68 48 48 C32.16 48 16.32 48 0 48 C0 32.16 0 16.32 0 0 Z " fill="#0D3E37" transform="translate(600,504)"/>
<path d="M0 0 C15.84 0 31.68 0 48 0 C48 15.84 48 31.68 48 48 C32.16 48 16.32 48 0 48 C0 32.16 0 16.32 0 0 Z " fill="#34E9CA" transform="translate(744,504)"/>
<path d="M0 0 C15.84 0 31.68 0 48 0 C48 15.84 48 31.68 48 48 C32.16 48 16.32 48 0 48 C0 32.16 0 16.32 0 0 Z " fill="#092B2E" transform="translate(840,456)"/>
<path d="M0 0 C15.84 0 31.68 0 48 0 C48 15.84 48 31.68 48 48 C32.16 48 16.32 48 0 48 C0 32.16 0 16.32 0 0 Z " fill="#0D3E37" transform="translate(648,456)"/>
<path d="M0 0 C15.84 0 31.68 0 48 0 C48 15.84 48 31.68 48 48 C32.16 48 16.32 48 0 48 C0 32.16 0 16.32 0 0 Z " fill="#34E9CA" transform="translate(792,456)"/>
<path d="M0 0 C15.84 0 31.68 0 48 0 C48 15.84 48 31.68 48 48 C32.16 48 16.32 48 0 48 C0 32.16 0 16.32 0 0 Z " fill="#A5FCF0" transform="translate(696,456)"/>
<path d="M0 0 C15.84 0 31.68 0 48 0 C48 15.84 48 31.68 48 48 C32.16 48 16.32 48 0 48 C0 32.16 0 16.32 0 0 Z " fill="#0D3E37" transform="translate(696,408)"/>
<path d="M0 0 C15.84 0 31.68 0 48 0 C48 15.84 48 31.68 48 48 C32.16 48 16.32 48 0 48 C0 32.16 0 16.32 0 0 Z " fill="#082C2E" transform="translate(888,408)"/>
<path d="M0 0 C15.84 0 31.68 0 48 0 C48 15.84 48 31.68 48 48 C32.16 48 16.32 48 0 48 C0 32.16 0 16.32 0 0 Z " fill="#34E9CA" transform="translate(840,408)"/>
<path d="M0 0 C15.84 0 31.68 0 48 0 C48 15.84 48 31.68 48 48 C32.16 48 16.32 48 0 48 C0 32.16 0 16.32 0 0 Z " fill="#A5FCF0" transform="translate(744,408)"/>
<path d="M0 0 C15.84 0 31.68 0 48 0 C48 15.84 48 31.68 48 48 C32.16 48 16.32 48 0 48 C0 32.16 0 16.32 0 0 Z " fill="#A5FCF1" transform="translate(888,360)"/>
<path d="M0 0 C15.84 0 31.68 0 48 0 C48 15.84 48 31.68 48 48 C32.16 48 16.32 48 0 48 C0 32.16 0 16.32 0 0 Z " fill="#0D3E37" transform="translate(744,360)"/>
<path d="M0 0 C15.84 0 31.68 0 48 0 C48 15.84 48 31.68 48 48 C32.16 48 16.32 48 0 48 C0 32.16 0 16.32 0 0 Z " fill="#092C2D" transform="translate(936,360)"/>
<path d="M0 0 C15.84 0 31.68 0 48 0 C48 15.84 48 31.68 48 48 C32.16 48 16.32 48 0 48 C0 32.16 0 16.32 0 0 Z " fill="#A5FCF0" transform="translate(792,360)"/>
<path d="M0 0 C15.84 0 31.68 0 48 0 C48 15.84 48 31.68 48 48 C32.16 48 16.32 48 0 48 C0 32.16 0 16.32 0 0 Z " fill="#2AC6AD" transform="translate(888,312)"/>
<path d="M0 0 C15.84 0 31.68 0 48 0 C48 15.84 48 31.68 48 48 C32.16 48 16.32 48 0 48 C0 32.16 0 16.32 0 0 Z " fill="#0D3E37" transform="translate(792,312)"/>
<path d="M0 0 C15.84 0 31.68 0 48 0 C48 15.84 48 31.68 48 48 C32.16 48 16.32 48 0 48 C0 32.16 0 16.32 0 0 Z " fill="#0D3E37" transform="translate(840,264)"/>
<path d="M0 0 C15.84 0 31.68 0 48 0 C48 15.51 48 31.02 48 47 C32.16 47 16.32 47 0 47 C0 31.49 0 15.98 0 0 Z " fill="#082C2D" transform="translate(600,697)"/>
<path d="M0 0 C15.84 0 31.68 0 48 0 C48 15.84 48 31.68 48 48 C32.16 48 16.32 48 0 48 C0 32.16 0 16.32 0 0 Z M2 1 C1.23317543 4.06729827 0.87407304 6.0648549 0.87060547 9.11010742 C0.86745331 9.90740768 0.86430115 10.70470795 0.86105347 11.52616882 C0.8630777 12.3773378 0.86510193 13.22850677 0.8671875 14.10546875 C0.86623077 14.98527908 0.86527405 15.86508942 0.86428833 16.77156067 C0.86360898 18.62659782 0.86544619 20.48163737 0.86962891 22.33666992 C0.87499979 25.18739089 0.86966583 28.03795568 0.86328125 30.88867188 C0.8639417 32.69010452 0.86522217 34.49153706 0.8671875 36.29296875 C0.86516327 37.15021042 0.86313904 38.00745209 0.86105347 38.89067078 C0.49417373 42.75628226 0.49417373 42.75628226 2 46 C3.34544327 46.09785341 4.69592563 46.12797985 6.04492188 46.12939453 C6.90251099 46.13254669 7.7601001 46.13569885 8.64367676 46.13894653 C10.04208801 46.13591019 10.04208801 46.13591019 11.46875 46.1328125 C12.41939331 46.13376923 13.37003662 46.13472595 14.3494873 46.13571167 C16.36368882 46.13639357 18.37789252 46.13453862 20.39208984 46.13037109 C23.48670355 46.12502298 26.5811721 46.13031577 29.67578125 46.13671875 C31.62760449 46.13605797 33.57942764 46.13477681 35.53125 46.1328125 C36.46352417 46.13483673 37.39579834 46.13686096 38.35632324 46.13894653 C39.21391235 46.13579437 40.07150146 46.13264221 40.95507812 46.12939453 C42.09305847 46.12820114 42.09305847 46.12820114 43.25402832 46.12698364 C45.02877312 46.18921087 45.02877312 46.18921087 46 45 C46.0927833 43.61839885 46.11747043 42.23211962 46.11352539 40.84741211 C46.11334412 39.50761292 46.11334412 39.50761292 46.11315918 38.14074707 C46.10804321 37.19582397 46.10292725 36.25090088 46.09765625 35.27734375 C46.09664917 34.41338989 46.09564209 33.54943604 46.09460449 32.65930176 C46.0893555 29.41868775 46.07539436 26.1780926 46.0625 22.9375 C46.041875 15.698125 46.02125 8.45875 46 1 C31.48 1 16.96 1 2 1 Z " fill="#836732" transform="translate(408,792)"/>
<path d="M0 0 C15.84 0 31.68 0 48 0 C48 15.84 48 31.68 48 48 C32.16 48 16.32 48 0 48 C0 32.16 0 16.32 0 0 Z M2 3 C0.95002895 5.65192082 0.87391353 8.18700795 0.87060547 11.01831055 C0.86745331 11.79559006 0.86430115 12.57286957 0.86105347 13.373703 C0.8630777 14.2029982 0.86510193 15.0322934 0.8671875 15.88671875 C0.86623077 16.74433304 0.86527405 17.60194733 0.86428833 18.48554993 C0.86360906 20.29350864 0.86544569 22.10146982 0.86962891 23.90942383 C0.87500042 26.6877178 0.8696653 29.46585155 0.86328125 32.24414062 C0.86394169 34.00000036 0.86522214 35.75585999 0.8671875 37.51171875 C0.86516327 38.34708664 0.86313904 39.18245453 0.86105347 40.0431366 C0.50759565 43.82816767 0.50759565 43.82816767 2 47 C3.41225046 47.0928726 4.82908934 47.11746772 6.24438477 47.11352539 C7.14524307 47.11344986 8.04610138 47.11337433 8.97425842 47.11329651 C10.4429966 47.10555458 10.4429966 47.10555458 11.94140625 47.09765625 C13.43751686 47.09553383 13.43751686 47.09553383 14.96385193 47.09336853 C18.16343124 47.08775114 21.36294169 47.07519571 24.5625 47.0625 C26.72591045 47.05748724 28.88932199 47.05292395 31.05273438 47.04882812 C36.36851325 47.03777607 41.68425171 47.02102104 47 47 C47.02527062 40.60962769 47.04283317 34.21926817 47.05493164 27.82885742 C47.05997308 25.65307127 47.06680607 23.47728853 47.07543945 21.30151367 C47.08751338 18.18146933 47.09323005 15.06146962 47.09765625 11.94140625 C47.10281754 10.96224747 47.10797882 9.98308868 47.11329651 8.97425842 C47.11337204 8.07340012 47.11344757 7.17254181 47.11352539 6.24438477 C47.115746 5.44718521 47.11796661 4.64998566 47.12025452 3.82862854 C47.20050456 1.98077719 47.20050456 1.98077719 46 1 C43.08971225 0.88641383 40.2040693 0.83581028 37.29296875 0.83203125 C36.41602859 0.82870285 35.53908844 0.82537445 34.63557434 0.82194519 C32.7752027 0.8168711 30.91482192 0.81453701 29.05444336 0.81469727 C26.20997012 0.81251722 23.36588858 0.79438457 20.52148438 0.77539062 C18.71614716 0.77245551 16.9108081 0.7704715 15.10546875 0.76953125 C13.82871529 0.75875298 13.82871529 0.75875298 12.52616882 0.74775696 C11.33021843 0.7523719 11.33021843 0.7523719 10.11010742 0.75708008 C9.41141037 0.75565506 8.71271332 0.75423004 7.99284363 0.75276184 C5.55869961 1.05474905 4.0284079 1.61282221 2 3 Z " fill="#37C0A9" transform="translate(888,312)"/>
<path d="M0 0 C15.84 0 31.68 0 48 0 C48 15.84 48 31.68 48 48 C32.16 48 16.32 48 0 48 C0 32.16 0 16.32 0 0 Z M1 1 C1 15.85 1 30.7 1 46 C6.11094863 46.86720176 6.11094863 46.86720176 11.13769531 47.14526367 C11.89157532 47.15164352 12.64545532 47.15802338 13.42218018 47.16459656 C14.21614197 47.16570938 15.01010376 47.1668222 15.828125 47.16796875 C17.07345001 47.17296135 17.07345001 47.17296135 18.34393311 47.17805481 C20.08865813 47.18309482 21.8333927 47.18546404 23.578125 47.18530273 C26.25536648 47.18750441 28.93220547 47.2057319 31.609375 47.22460938 C33.30729026 47.22754082 35.00520747 47.22952728 36.703125 47.23046875 C37.50518372 47.23765427 38.30724243 47.24483978 39.13360596 47.25224304 C43.53563208 47.41258497 43.53563208 47.41258497 47 45 C47.29800328 43.06880015 47.29800328 43.06880015 47.24291992 40.84155273 C47.24599655 39.98403915 47.24907318 39.12652557 47.25224304 38.24302673 C47.24505753 37.31591385 47.23787201 36.38880096 47.23046875 35.43359375 C47.23001053 34.48436539 47.22955231 33.53513702 47.2290802 32.55714417 C47.22605638 30.54890697 47.21816624 28.54067216 47.20581055 26.5324707 C47.18755439 23.44669351 47.18530082 20.36121617 47.18554688 17.27539062 C47.18063183 15.32812239 47.17480357 13.3808562 47.16796875 11.43359375 C47.16685593 10.50445663 47.1657431 9.57531952 47.16459656 8.61802673 C47.15821671 7.76366531 47.15183685 6.90930389 47.14526367 6.02905273 C47.14145187 5.27341537 47.13764008 4.51777802 47.13371277 3.73924255 C47.18750911 1.97056778 47.18750911 1.97056778 46 1 C44.58774954 0.9071274 43.17091066 0.88253228 41.75561523 0.88647461 C40.84211304 0.88659546 39.92861084 0.88671631 38.98742676 0.88684082 C38.02091187 0.89195679 37.05439697 0.89707275 36.05859375 0.90234375 C34.73317566 0.90385437 34.73317566 0.90385437 33.38098145 0.90539551 C30.06647451 0.91064469 26.75198601 0.92460583 23.4375 0.9375 C12.3309375 0.9684375 12.3309375 0.9684375 1 1 Z " fill="#44E2C5" transform="translate(552,600)"/>
<path d="M0 0 C15.84 0 31.68 0 48 0 C48 15.84 48 31.68 48 48 C47.67 48 47.34 48 47 48 C46.67 32.82 46.34 17.64 46 2 C39.461875 1.979375 32.92375 1.95875 26.1875 1.9375 C24.12653076 1.928396 22.06556152 1.91929199 19.94213867 1.90991211 C18.30908269 1.90699157 16.67602599 1.90444334 15.04296875 1.90234375 C14.19464478 1.89722778 13.3463208 1.89211182 12.47229004 1.88684082 C11.66054321 1.88671997 10.84879639 1.88659912 10.01245117 1.88647461 C9.3085173 1.884254 8.60458344 1.88203339 7.87931824 1.87974548 C5.77178344 1.93440466 5.77178344 1.93440466 3 3 C1.33568727 6.76233032 1.91193568 11.15695369 1.97265625 15.1953125 C1.98529439 16.81380001 1.99765594 18.4322897 2.00976562 20.05078125 C2.03465685 22.59658623 2.06272548 25.14227785 2.09594727 27.68798828 C2.1260493 30.14877062 2.14388587 32.60940546 2.16015625 35.0703125 C2.17361588 35.83489777 2.1870755 36.59948303 2.20094299 37.38723755 C2.20988109 39.25933564 2.11378218 41.13134145 2 43 C1.34 43.66 0.68 44.32 0 45 C0 30.15 0 15.3 0 0 Z " fill="#37C0A9" transform="translate(840,360)"/>
<path d="M0 0 C15.84 0 31.68 0 48 0 C48 15.84 48 31.68 48 48 C45.36 47.67 42.72 47.34 40 47 C40 46.67 40 46.34 40 46 C41.98 46 43.96 46 46 46 C46.33 31.15 46.66 16.3 47 1 C32.15 1 17.3 1 2 1 C2 2.65 2 4.3 2 6 C1.34 5.34 0.68 4.68 0 4 C0 2.68 0 1.36 0 0 Z " fill="#148E7B" transform="translate(552,648)"/>
<path d="M0 0 C0.66 0 1.32 0 2 0 C2 15.18 2 30.36 2 46 C8.105 46.020625 14.21 46.04125 20.5 46.0625 C23.36655273 46.07615601 23.36655273 46.07615601 26.29101562 46.09008789 C27.82942637 46.09301233 29.3678379 46.09555964 30.90625 46.09765625 C31.68581055 46.10277222 32.46537109 46.10788818 33.26855469 46.11315918 C38.26703485 46.11394313 43.05120525 45.71225183 48 45 C48 45.99 48 46.98 48 48 C32.16 48 16.32 48 0 48 C0 32.16 0 16.32 0 0 Z " fill="#5C502D" transform="translate(360,840)"/>
<path d="M0 0 C15.84 0 31.68 0 48 0 C48 15.84 48 31.68 48 48 C47.01 47.67 46.02 47.34 45 47 C45.15847412 46.03505615 45.31694824 45.0701123 45.48022461 44.07592773 C46.11005067 39.64938615 46.22515645 35.25059576 46.31640625 30.78515625 C46.33505737 30.02553589 46.3537085 29.26591553 46.3729248 28.48327637 C46.44063841 25.67645636 46.50115745 22.86946648 46.5625 20.0625 C46.706875 13.771875 46.85125 7.48125 47 1 C31.49 1.33 15.98 1.66 0 2 C0 1.34 0 0.68 0 0 Z " fill="#5D4F2C" transform="translate(456,744)"/>
<path d="M0 0 C0.33 0 0.66 0 1 0 C1 15.51 1 31.02 1 47 C-14.84 47 -30.68 47 -47 47 C-47 46.67 -47 46.34 -47 46 C-45.81446533 45.97494385 -44.62893066 45.9498877 -43.4074707 45.92407227 C-38.99981282 45.82974468 -34.59230322 45.72958623 -30.18481445 45.62768555 C-28.27892532 45.58443247 -26.37299983 45.54275075 -24.46704102 45.50268555 C-21.72400979 45.44474929 -18.98115987 45.3811226 -16.23828125 45.31640625 C-14.96456413 45.29133751 -14.96456413 45.29133751 -13.66511536 45.26576233 C-9.66292858 45.1660381 -5.90681068 44.97583449 -2 44 C-0.84251537 39.33298903 -0.78014417 34.75972901 -0.68359375 29.98046875 C-0.66281265 29.12189774 -0.64203156 28.26332672 -0.62062073 27.3787384 C-0.55547477 24.64840346 -0.49640346 21.91797605 -0.4375 19.1875 C-0.3942815 17.33137082 -0.35066616 15.47525084 -0.30664062 13.61914062 C-0.19982939 9.07952075 -0.09846435 4.53980828 0 0 Z " fill="#97FEF4" transform="translate(743,457)"/>
<path d="M0 0 C0.33 0 0.66 0 1 0 C1 15.51 1 31.02 1 47 C-14.51 47 -30.02 47 -46 47 C-46 46.67 -46 46.34 -46 46 C-44.26713745 45.96241577 -44.26713745 45.96241577 -42.49926758 45.92407227 C-38.20342371 45.82973055 -33.90773146 45.72957563 -29.61206055 45.62768555 C-27.75467481 45.58443779 -25.89725192 45.54275572 -24.03979492 45.50268555 C-21.36625992 45.4447363 -18.69291019 45.38111348 -16.01953125 45.31640625 C-15.19226028 45.29969376 -14.36498932 45.28298126 -13.51264954 45.26576233 C-9.56096105 45.1647704 -5.85881731 44.95704119 -2 44 C-0.84251537 39.33298903 -0.78014417 34.75972901 -0.68359375 29.98046875 C-0.66281265 29.12189774 -0.64203156 28.26332672 -0.62062073 27.3787384 C-0.55547477 24.64840346 -0.49640346 21.91797605 -0.4375 19.1875 C-0.3942815 17.33137082 -0.35066616 15.47525084 -0.30664062 13.61914062 C-0.19982939 9.07952075 -0.09846435 4.53980828 0 0 Z " fill="#96FFF4" transform="translate(791,409)"/>
<path d="M0 0 C0.33 0 0.66 0 1 0 C1 15.51 1 31.02 1 47 C-14.51 47 -30.02 47 -46 47 C-46 46.67 -46 46.34 -46 46 C-44.26713745 45.96241577 -44.26713745 45.96241577 -42.49926758 45.92407227 C-38.20342371 45.82973055 -33.90773146 45.72957563 -29.61206055 45.62768555 C-27.75467481 45.58443779 -25.89725192 45.54275572 -24.03979492 45.50268555 C-21.36625992 45.4447363 -18.69291019 45.38111348 -16.01953125 45.31640625 C-15.19226028 45.29969376 -14.36498932 45.28298126 -13.51264954 45.26576233 C-9.56096105 45.1647704 -5.85881731 44.95704119 -2 44 C-0.84251537 39.33298903 -0.78014417 34.75972901 -0.68359375 29.98046875 C-0.66281265 29.12189774 -0.64203156 28.26332672 -0.62062073 27.3787384 C-0.55547477 24.64840346 -0.49640346 21.91797605 -0.4375 19.1875 C-0.3942815 17.33137082 -0.35066616 15.47525084 -0.30664062 13.61914062 C-0.19982939 9.07952075 -0.09846435 4.53980828 0 0 Z " fill="#96FFF4" transform="translate(839,361)"/>
<path d="M0 0 C14.85 0 29.7 0 45 0 C45 0.33 45 0.66 45 1 C43.83428467 1.02505615 42.66856934 1.0501123 41.4675293 1.07592773 C37.14563869 1.17004691 32.8239071 1.27025669 28.50219727 1.37231445 C26.63114134 1.41564622 24.76004631 1.45732257 22.88891602 1.49731445 C20.20056369 1.55505949 17.51240785 1.61874181 14.82421875 1.68359375 C13.56782845 1.70866249 13.56782845 1.70866249 12.28605652 1.73423767 C8.96326712 1.81914061 6.17247982 1.94250673 3 3 C1.33568727 6.76233032 1.91193568 11.15695369 1.97265625 15.1953125 C1.98529439 16.81380001 1.99765594 18.4322897 2.00976562 20.05078125 C2.03465685 22.59658623 2.06272548 25.14227785 2.09594727 27.68798828 C2.1260493 30.14877062 2.14388587 32.60940546 2.16015625 35.0703125 C2.17361588 35.83489777 2.1870755 36.59948303 2.20094299 37.38723755 C2.20988109 39.25933564 2.11378218 41.13134145 2 43 C1.34 43.66 0.68 44.32 0 45 C0 30.15 0 15.3 0 0 Z " fill="#38C0A9" transform="translate(744,456)"/>
<path d="M0 0 C14.85 0 29.7 0 45 0 C45 0.33 45 0.66 45 1 C43.83428467 1.02505615 42.66856934 1.0501123 41.4675293 1.07592773 C37.14563869 1.17004691 32.8239071 1.27025669 28.50219727 1.37231445 C26.63114134 1.41564622 24.76004631 1.45732257 22.88891602 1.49731445 C20.20056369 1.55505949 17.51240785 1.61874181 14.82421875 1.68359375 C13.56782845 1.70866249 13.56782845 1.70866249 12.28605652 1.73423767 C8.96326712 1.81914061 6.17247982 1.94250673 3 3 C1.33568727 6.76233032 1.91193568 11.15695369 1.97265625 15.1953125 C1.98529439 16.81380001 1.99765594 18.4322897 2.00976562 20.05078125 C2.03465685 22.59658623 2.06272548 25.14227785 2.09594727 27.68798828 C2.1260493 30.14877062 2.14388587 32.60940546 2.16015625 35.0703125 C2.17361588 35.83489777 2.1870755 36.59948303 2.20094299 37.38723755 C2.20988109 39.25933564 2.11378218 41.13134145 2 43 C1.34 43.66 0.68 44.32 0 45 C0 30.15 0 15.3 0 0 Z " fill="#38C0A9" transform="translate(792,408)"/>
<path d="M0 0 C15.84 0 31.68 0 48 0 C48 0.33 48 0.66 48 1 C47.43845718 1.01030746 46.87691437 1.02061493 46.2983551 1.03123474 C40.47506534 1.13907685 34.65193736 1.25369208 28.82885742 1.37231445 C26.65311047 1.41573507 24.47732786 1.45740471 22.30151367 1.49731445 C19.18136832 1.55484502 16.06140367 1.61858823 12.94140625 1.68359375 C11.96224747 1.70030624 10.98308868 1.71701874 9.97425842 1.73423767 C8.62297096 1.7641555 8.62297096 1.7641555 7.24438477 1.79467773 C6.04858543 1.81799416 6.04858543 1.81799416 4.82862854 1.84178162 C2.98148618 1.80400665 2.98148618 1.80400665 2 3 C1.87790076 4.41117702 1.82229128 5.82820459 1.79467773 7.24438477 C1.77473251 8.14524307 1.75478729 9.04610138 1.73423767 9.97425842 C1.71752518 10.95341721 1.70081268 11.93257599 1.68359375 12.94140625 C1.66281265 13.93881332 1.64203156 14.9362204 1.62062073 15.96385193 C1.55501363 19.16332843 1.49618866 22.36288982 1.4375 25.5625 C1.39432538 27.72592039 1.35071145 29.88933206 1.30664062 32.05273438 C1.19932097 37.36839874 1.09757573 42.68414834 1 48 C0.67 48 0.34 48 0 48 C0 32.16 0 16.32 0 0 Z " fill="#003834" transform="translate(648,648)"/>
<path d="M0 0 C15.84 0 31.68 0 48 0 C48 0.33 48 0.66 48 1 C47.43845718 1.01030746 46.87691437 1.02061493 46.2983551 1.03123474 C40.47506534 1.13907685 34.65193736 1.25369208 28.82885742 1.37231445 C26.65311047 1.41573507 24.47732786 1.45740471 22.30151367 1.49731445 C19.18136832 1.55484502 16.06140367 1.61858823 12.94140625 1.68359375 C11.96224747 1.70030624 10.98308868 1.71701874 9.97425842 1.73423767 C8.62297096 1.7641555 8.62297096 1.7641555 7.24438477 1.79467773 C6.04858543 1.81799416 6.04858543 1.81799416 4.82862854 1.84178162 C2.98148618 1.80400665 2.98148618 1.80400665 2 3 C1.87790076 4.41117702 1.82229128 5.82820459 1.79467773 7.24438477 C1.77473251 8.14524307 1.75478729 9.04610138 1.73423767 9.97425842 C1.71752518 10.95341721 1.70081268 11.93257599 1.68359375 12.94140625 C1.66281265 13.93881332 1.64203156 14.9362204 1.62062073 15.96385193 C1.55501363 19.16332843 1.49618866 22.36288982 1.4375 25.5625 C1.39432538 27.72592039 1.35071145 29.88933206 1.30664062 32.05273438 C1.19932097 37.36839874 1.09757573 42.68414834 1 48 C0.67 48 0.34 48 0 48 C0 32.16 0 16.32 0 0 Z " fill="#003834" transform="translate(696,600)"/>
<path d="M0 0 C15.84 0 31.68 0 48 0 C48 0.33 48 0.66 48 1 C47.43845718 1.01030746 46.87691437 1.02061493 46.2983551 1.03123474 C40.47506534 1.13907685 34.65193736 1.25369208 28.82885742 1.37231445 C26.65311047 1.41573507 24.47732786 1.45740471 22.30151367 1.49731445 C19.18136832 1.55484502 16.06140367 1.61858823 12.94140625 1.68359375 C11.96224747 1.70030624 10.98308868 1.71701874 9.97425842 1.73423767 C8.62297096 1.7641555 8.62297096 1.7641555 7.24438477 1.79467773 C6.04858543 1.81799416 6.04858543 1.81799416 4.82862854 1.84178162 C2.98148618 1.80400665 2.98148618 1.80400665 2 3 C1.87790076 4.41117702 1.82229128 5.82820459 1.79467773 7.24438477 C1.77473251 8.14524307 1.75478729 9.04610138 1.73423767 9.97425842 C1.71752518 10.95341721 1.70081268 11.93257599 1.68359375 12.94140625 C1.66281265 13.93881332 1.64203156 14.9362204 1.62062073 15.96385193 C1.55501363 19.16332843 1.49618866 22.36288982 1.4375 25.5625 C1.39432538 27.72592039 1.35071145 29.88933206 1.30664062 32.05273438 C1.19932097 37.36839874 1.09757573 42.68414834 1 48 C0.67 48 0.34 48 0 48 C0 32.16 0 16.32 0 0 Z " fill="#003834" transform="translate(744,552)"/>
<path d="M0 0 C15.84 0 31.68 0 48 0 C48 0.33 48 0.66 48 1 C47.43845718 1.01030746 46.87691437 1.02061493 46.2983551 1.03123474 C40.47506534 1.13907685 34.65193736 1.25369208 28.82885742 1.37231445 C26.65311047 1.41573507 24.47732786 1.45740471 22.30151367 1.49731445 C19.18136832 1.55484502 16.06140367 1.61858823 12.94140625 1.68359375 C11.96224747 1.70030624 10.98308868 1.71701874 9.97425842 1.73423767 C8.62297096 1.7641555 8.62297096 1.7641555 7.24438477 1.79467773 C6.04858543 1.81799416 6.04858543 1.81799416 4.82862854 1.84178162 C2.98148618 1.80400665 2.98148618 1.80400665 2 3 C1.87790076 4.41117702 1.82229128 5.82820459 1.79467773 7.24438477 C1.77473251 8.14524307 1.75478729 9.04610138 1.73423767 9.97425842 C1.71752518 10.95341721 1.70081268 11.93257599 1.68359375 12.94140625 C1.66281265 13.93881332 1.64203156 14.9362204 1.62062073 15.96385193 C1.55501363 19.16332843 1.49618866 22.36288982 1.4375 25.5625 C1.39432538 27.72592039 1.35071145 29.88933206 1.30664062 32.05273438 C1.19932097 37.36839874 1.09757573 42.68414834 1 48 C0.67 48 0.34 48 0 48 C0 32.16 0 16.32 0 0 Z " fill="#003834" transform="translate(792,504)"/>
<path d="M0 0 C15.84 0 31.68 0 48 0 C48 0.33 48 0.66 48 1 C47.43845718 1.01030746 46.87691437 1.02061493 46.2983551 1.03123474 C40.47506534 1.13907685 34.65193736 1.25369208 28.82885742 1.37231445 C26.65311047 1.41573507 24.47732786 1.45740471 22.30151367 1.49731445 C19.18136832 1.55484502 16.06140367 1.61858823 12.94140625 1.68359375 C11.96224747 1.70030624 10.98308868 1.71701874 9.97425842 1.73423767 C8.62297096 1.7641555 8.62297096 1.7641555 7.24438477 1.79467773 C6.04858543 1.81799416 6.04858543 1.81799416 4.82862854 1.84178162 C2.98148618 1.80400665 2.98148618 1.80400665 2 3 C1.87790076 4.41117702 1.82229128 5.82820459 1.79467773 7.24438477 C1.77473251 8.14524307 1.75478729 9.04610138 1.73423767 9.97425842 C1.71752518 10.95341721 1.70081268 11.93257599 1.68359375 12.94140625 C1.66281265 13.93881332 1.64203156 14.9362204 1.62062073 15.96385193 C1.55501363 19.16332843 1.49618866 22.36288982 1.4375 25.5625 C1.39432538 27.72592039 1.35071145 29.88933206 1.30664062 32.05273438 C1.19932097 37.36839874 1.09757573 42.68414834 1 48 C0.67 48 0.34 48 0 48 C0 32.16 0 16.32 0 0 Z " fill="#003834" transform="translate(840,456)"/>
<path d="M0 0 C13.86 0 27.72 0 42 0 C42 0.66 42 1.32 42 2 C29.13 2 16.26 2 3 2 C2.34 3.98 1.68 5.96 1 8 C0.67 8 0.34 8 0 8 C0 5.36 0 2.72 0 0 Z " fill="#2E1D00" transform="translate(408,840)"/>
<path d="M0 0 C15.84 0 31.68 0 48 0 C47.67 0.66 47.34 1.32 47 2 C45.85523193 1.98952637 44.71046387 1.97905273 43.53100586 1.96826172 C39.26134398 1.93191017 34.99169564 1.90904457 30.72192383 1.89013672 C28.87815038 1.88011358 27.03439269 1.86649148 25.19067383 1.84912109 C22.5320241 1.82471005 19.87358557 1.81347983 17.21484375 1.8046875 C16.39789536 1.79436493 15.58094696 1.78404236 14.73924255 1.77340698 C9.77251546 1.77244543 5.7110509 2.40854037 1 4 C0.67 2.68 0.34 1.36 0 0 Z " fill="#142923" transform="translate(360,888)"/>
<path d="M0 0 C2.64 0 5.28 0 8 0 C4.25 2 4.25 2 2 2 C1.67 4.31 1.34 6.62 1 9 C0.67 9 0.34 9 0 9 C0 6.03 0 3.06 0 0 Z " fill="#00453A" transform="translate(552,696)"/>
<path d="M0 0 C0 0.99 0 1.98 0 3 C-2.64 3 -5.28 3 -8 3 C-8 2.34 -8 1.68 -8 1 C-5.23735711 0.40267181 -2.83967231 0 0 0 Z " fill="#585132" transform="translate(408,885)"/>
<path d="M0 0 C0.66 0 1.32 0 2 0 C2 2.64 2 5.28 2 8 C1.01 7.67 0.02 7.34 -1 7 C-0.67 4.69 -0.34 2.38 0 0 Z " fill="#585132" transform="translate(502,784)"/>
<path d="M0 0 C0.66 0.33 1.32 0.66 2 1 C2 2.32 2 3.64 2 5 C0.35 4.67 -1.3 4.34 -3 4 C-2.01 2.68 -1.02 1.36 0 0 Z " fill="#1DCDAC" transform="translate(692,593)"/>
<path d="M0 0 C0.66 0.33 1.32 0.66 2 1 C2 2.32 2 3.64 2 5 C0.35 4.67 -1.3 4.34 -3 4 C-2.01 2.68 -1.02 1.36 0 0 Z " fill="#1DCDAC" transform="translate(740,545)"/>
<path d="M0 0 C0.66 0.33 1.32 0.66 2 1 C2 2.32 2 3.64 2 5 C0.35 4.67 -1.3 4.34 -3 4 C-2.01 2.68 -1.02 1.36 0 0 Z " fill="#1DCDAC" transform="translate(788,497)"/>
<path d="M0 0 C0.66 0.33 1.32 0.66 2 1 C2 2.32 2 3.64 2 5 C0.35 4.67 -1.3 4.34 -3 4 C-2.01 2.68 -1.02 1.36 0 0 Z " fill="#1DCDAC" transform="translate(836,449)"/>
</svg>
