<?xml version="1.0" encoding="UTF-8"?>
<svg version="1.1" xmlns="http://www.w3.org/2000/svg" viewBox="120 216 960 720">
<path d="M0 0 C47.52 0 95.04 0 144 0 C144 47.52 144 95.04 144 144 C128.16 144 112.32 144 96 144 C96 159.84 96 175.68 96 192 C80.16 192 64.32 192 48 192 C48 207.84 48 223.68 48 240 C32.16 240 16.32 240 0 240 C0 255.84 0 271.68 0 288 C-15.84 288 -31.68 288 -48 288 C-48 303.84 -48 319.68 -48 336 C-63.84 336 -79.68 336 -96 336 C-96 351.84 -96 367.68 -96 384 C-111.84 384 -127.68 384 -144 384 C-144 399.84 -144 415.68 -144 432 C-159.84 432 -175.68 432 -192 432 C-192 447.84 -192 463.68 -192 480 C-207.84 480 -223.68 480 -240 480 C-240 495.84 -240 511.68 -240 528 C-224.16 528 -208.32 528 -192 528 C-192 543.84 -192 559.68 -192 576 C-176.16 576 -160.32 576 -144 576 C-144 607.68 -144 639.36 -144 672 C-175.68 672 -207.36 672 -240 672 C-240 656.16 -240 640.32 -240 624 C-271.68 624 -303.36 624 -336 624 C-336 608.16 -336 592.32 -336 576 C-351.84 576 -367.68 576 -384 576 C-384 591.84 -384 607.68 -384 624 C-399.84 624 -415.68 624 -432 624 C-432 639.84 -432 655.68 -432 672 C-447.84 672 -463.68 672 -480 672 C-480 703.68 -480 735.36 -480 768 C-527.52 768 -575.04 768 -624 768 C-624 720.48 -624 672.96 -624 624 C-592.32 624 -560.64 624 -528 624 C-528 608.16 -528 592.32 -528 576 C-512.16 576 -496.32 576 -480 576 C-480 560.16 -480 544.32 -480 528 C-464.16 528 -448.32 528 -432 528 C-432 512.16 -432 496.32 -432 480 C-447.84 480 -463.68 480 -480 480 C-480 448.32 -480 416.64 -480 384 C-495.84 384 -511.68 384 -528 384 C-528 352.32 -528 320.64 -528 288 C-496.32 288 -464.64 288 -432 288 C-432 303.84 -432 319.68 -432 336 C-416.16 336 -400.32 336 -384 336 C-384 351.84 -384 367.68 -384 384 C-368.16 384 -352.32 384 -336 384 C-336 368.16 -336 352.32 -336 336 C-320.16 336 -304.32 336 -288 336 C-288 320.16 -288 304.32 -288 288 C-272.16 288 -256.32 288 -240 288 C-240 272.16 -240 256.32 -240 240 C-224.16 240 -208.32 240 -192 240 C-192 224.16 -192 208.32 -192 192 C-176.16 192 -160.32 192 -144 192 C-144 176.16 -144 160.32 -144 144 C-128.16 144 -112.32 144 -96 144 C-96 128.16 -96 112.32 -96 96 C-80.16 96 -64.32 96 -48 96 C-48 80.16 -48 64.32 -48 48 C-32.16 48 -16.32 48 0 48 C0 32.16 0 16.32 0 0 Z " fill="#092C2D" transform="translate(360,504)"/>
<path d="M0 0 C63.36 0 126.72 0 192 0 C192 31.68 192 63.36 192 96 C176.16 96 160.32 96 144 96 C144 111.84 144 127.68 144 144 C128.16 144 112.32 144 96 144 C96 159.84 96 175.68 96 192 C80.16 192 64.32 192 48 192 C48 207.84 48 223.68 48 240 C0.48 240 -47.04 240 -96 240 C-96 192.48 -96 144.96 -96 96 C-80.16 96 -64.32 96 -48 96 C-48 80.16 -48 64.32 -48 48 C-32.16 48 -16.32 48 0 48 C0 32.16 0 16.32 0 0 Z " fill="#2AC6AC" transform="translate(648,456)"/>
<path d="M0 0 C31.68 0 63.36 0 96 0 C96 15.84 96 31.68 96 48 C111.84 48 127.68 48 144 48 C144 63.84 144 79.68 144 96 C159.84 96 175.68 96 192 96 C192 143.52 192 191.04 192 240 C160.32 240 128.64 240 96 240 C96 224.16 96 208.32 96 192 C80.16 192 64.32 192 48 192 C48 160.32 48 128.64 48 96 C32.16 96 16.32 96 0 96 C0 64.32 0 32.64 0 0 Z " fill="#0D3E37" transform="translate(360,504)"/>
<path d="M0 0 C31.68 0 63.36 0 96 0 C96 15.84 96 31.68 96 48 C111.84 48 127.68 48 144 48 C144 63.84 144 79.68 144 96 C159.84 96 175.68 96 192 96 C192 127.68 192 159.36 192 192 C160.32 192 128.64 192 96 192 C96 176.16 96 160.32 96 144 C64.32 144 32.64 144 0 144 C0 128.16 0 112.32 0 96 C-15.84 96 -31.68 96 -48 96 C-48 80.16 -48 64.32 -48 48 C-32.16 48 -16.32 48 0 48 C0 32.16 0 16.32 0 0 Z " fill="#0B3532" transform="translate(552,696)"/>
<path d="M0 0 C15.84 0 31.68 0 48 0 C48 31.68 48 63.36 48 96 C32.16 96 16.32 96 0 96 C0 127.68 0 159.36 0 192 C15.84 192 31.68 192 48 192 C48 207.84 48 223.68 48 240 C0.48 240 -47.04 240 -96 240 C-96 192.48 -96 144.96 -96 96 C-80.16 96 -64.32 96 -48 96 C-48 80.16 -48 64.32 -48 48 C-32.16 48 -16.32 48 0 48 C0 32.16 0 16.32 0 0 Z " fill="#34E9C9" transform="translate(648,456)"/>
<path d="M0 0 C31.68 0 63.36 0 96 0 C96 31.68 96 63.36 96 96 C80.16 96 64.32 96 48 96 C48 111.84 48 127.68 48 144 C16.32 144 -15.36 144 -48 144 C-48 112.32 -48 80.64 -48 48 C-32.16 48 -16.32 48 0 48 C0 32.16 0 16.32 0 0 Z " fill="#674D1E" transform="translate(408,744)"/>
<path d="M0 0 C15.84 0 31.68 0 48 0 C48 15.84 48 31.68 48 48 C63.84 48 79.68 48 96 48 C96 63.84 96 79.68 96 96 C80.16 96 64.32 96 48 96 C48 111.84 48 127.68 48 144 C0.48 144 -47.04 144 -96 144 C-96 128.16 -96 112.32 -96 96 C-80.16 96 -64.32 96 -48 96 C-48 80.16 -48 64.32 -48 48 C-32.16 48 -16.32 48 0 48 C0 32.16 0 16.32 0 0 Z " fill="#A4FCF0" transform="translate(840,264)"/>
<path d="M0 0 C31.68 0 63.36 0 96 0 C96 47.52 96 95.04 96 144 C64.32 144 32.64 144 0 144 C0 96.48 0 48.96 0 0 Z " fill="#146255" transform="translate(456,600)"/>
<path d="M0 0 C79.2 0 158.4 0 240 0 C240 15.84 240 31.68 240 48 C224.16 48 208.32 48 192 48 C192 63.84 192 79.68 192 96 C176.16 96 160.32 96 144 96 C144 80.16 144 64.32 144 48 C96.48 48 48.96 48 0 48 C0 32.16 0 16.32 0 0 Z " fill="#2AC6AC" transform="translate(696,408)"/>
<path d="M0 0 C15.84 0 31.68 0 48 0 C48 47.52 48 95.04 48 144 C16.32 144 -15.36 144 -48 144 C-48 112.32 -48 80.64 -48 48 C-32.16 48 -16.32 48 0 48 C0 32.16 0 16.32 0 0 Z " fill="#34E9CA" transform="translate(696,504)"/>
<path d="M0 0 C47.52 0 95.04 0 144 0 C144 47.52 144 95.04 144 144 C128.16 144 112.32 144 96 144 C96 112.32 96 80.64 96 48 C64.32 48 32.64 48 0 48 C0 32.16 0 16.32 0 0 Z " fill="#0D3E37" transform="translate(888,216)"/>
<path d="M0 0 C31.68 0 63.36 0 96 0 C96 31.68 96 63.36 96 96 C64.32 96 32.64 96 0 96 C0 64.32 0 32.64 0 0 Z " fill="#0D3E37" transform="translate(264,840)"/>
<path d="M0 0 C15.84 0 31.68 0 48 0 C48 15.84 48 31.68 48 48 C63.84 48 79.68 48 96 48 C96 63.84 96 79.68 96 96 C64.32 96 32.64 96 0 96 C0 64.32 0 32.64 0 0 Z " fill="#674D1E" transform="translate(360,792)"/>
<path d="M0 0 C15.84 0 31.68 0 48 0 C48 31.68 48 63.36 48 96 C16.32 96 -15.36 96 -48 96 C-48 80.16 -48 64.32 -48 48 C-32.16 48 -16.32 48 0 48 C0 32.16 0 16.32 0 0 Z " fill="#34E9C9" transform="translate(648,456)"/>
<path d="M0 0 C47.52 0 95.04 0 144 0 C144 15.84 144 31.68 144 48 C96.48 48 48.96 48 0 48 C0 32.16 0 16.32 0 0 Z " fill="#2AC6AD" transform="translate(744,360)"/>
<path d="M0 0 C31.68 0 63.36 0 96 0 C96 15.84 96 31.68 96 48 C64.32 48 32.64 48 0 48 C0 32.16 0 16.32 0 0 Z " fill="#082C2D" transform="translate(552,792)"/>
<path d="M0 0 C15.84 0 31.68 0 48 0 C48 31.68 48 63.36 48 96 C32.16 96 16.32 96 0 96 C0 64.32 0 32.64 0 0 Z " fill="#082C2D" transform="translate(984,264)"/>
<path d="M0 0 C15.84 0 31.68 0 48 0 C48 15.84 48 31.68 48 48 C32.16 48 16.32 48 0 48 C0 32.16 0 16.32 0 0 Z " fill="#156254" transform="translate(312,888)"/>
<path d="M0 0 C15.84 0 31.68 0 48 0 C48 15.84 48 31.68 48 48 C32.16 48 16.32 48 0 48 C0 32.16 0 16.32 0 0 Z " fill="#281D0C" transform="translate(408,840)"/>
<path d="M0 0 C15.84 0 31.68 0 48 0 C48 15.84 48 31.68 48 48 C32.16 48 16.32 48 0 48 C0 32.16 0 16.32 0 0 Z " fill="#281D0B" transform="translate(456,792)"/>
<path d="M0 0 C15.84 0 31.68 0 48 0 C48 15.84 48 31.68 48 48 C32.16 48 16.32 48 0 48 C0 32.16 0 16.32 0 0 Z " fill="#896726" transform="translate(408,792)"/>
<path d="M0 0 C15.84 0 31.68 0 48 0 C48 15.84 48 31.68 48 48 C32.16 48 16.32 48 0 48 C0 32.16 0 16.32 0 0 Z " fill="#483614" transform="translate(360,792)"/>
<path d="M0 0 C15.84 0 31.68 0 48 0 C48 15.84 48 31.68 48 48 C32.16 48 16.32 48 0 48 C0 32.16 0 16.32 0 0 Z " fill="#0D3E37" transform="translate(648,792)"/>
<path d="M0 0 C15.84 0 31.68 0 48 0 C48 15.84 48 31.68 48 48 C32.16 48 16.32 48 0 48 C0 32.16 0 16.32 0 0 Z " fill="#483614" transform="translate(408,744)"/>
<path d="M0 0 C15.84 0 31.68 0 48 0 C48 15.84 48 31.68 48 48 C32.16 48 16.32 48 0 48 C0 32.16 0 16.32 0 0 Z " fill="#092C2D" transform="translate(504,744)"/>
<path d="M0 0 C15.84 0 31.68 0 48 0 C48 15.84 48 31.68 48 48 C32.16 48 16.32 48 0 48 C0 32.16 0 16.32 0 0 Z " fill="#082C2D" transform="translate(648,744)"/>
<path d="M0 0 C15.84 0 31.68 0 48 0 C48 15.84 48 31.68 48 48 C32.16 48 16.32 48 0 48 C0 32.16 0 16.32 0 0 Z " fill="#208977" transform="translate(504,696)"/>
<path d="M0 0 C15.84 0 31.68 0 48 0 C48 15.84 48 31.68 48 48 C32.16 48 16.32 48 0 48 C0 32.16 0 16.32 0 0 Z " fill="#0D3E36" transform="translate(456,696)"/>
<path d="M0 0 C15.84 0 31.68 0 48 0 C48 15.84 48 31.68 48 48 C32.16 48 16.32 48 0 48 C0 32.16 0 16.32 0 0 Z " fill="#1F8978" transform="translate(552,648)"/>
<path d="M0 0 C15.84 0 31.68 0 48 0 C48 15.84 48 31.68 48 48 C32.16 48 16.32 48 0 48 C0 32.16 0 16.32 0 0 Z " fill="#092C2E" transform="translate(648,648)"/>
<path d="M0 0 C15.84 0 31.68 0 48 0 C48 15.84 48 31.68 48 48 C32.16 48 16.32 48 0 48 C0 32.16 0 16.32 0 0 Z " fill="#34E9C9" transform="translate(600,648)"/>
<path d="M0 0 C15.84 0 31.68 0 48 0 C48 15.84 48 31.68 48 48 C32.16 48 16.32 48 0 48 C0 32.16 0 16.32 0 0 Z " fill="#1E8A79" transform="translate(600,600)"/>
<path d="M0 0 C15.84 0 31.68 0 48 0 C48 15.84 48 31.68 48 48 C32.16 48 16.32 48 0 48 C0 32.16 0 16.32 0 0 Z " fill="#092B2E" transform="translate(696,600)"/>
<path d="M0 0 C15.84 0 31.68 0 48 0 C48 15.84 48 31.68 48 48 C32.16 48 16.32 48 0 48 C0 32.16 0 16.32 0 0 Z " fill="#32EACA" transform="translate(552,600)"/>
<path d="M0 0 C15.84 0 31.68 0 48 0 C48 15.84 48 31.68 48 48 C32.16 48 16.32 48 0 48 C0 32.16 0 16.32 0 0 Z " fill="#34E9C9" transform="translate(648,600)"/>
<path d="M0 0 C15.84 0 31.68 0 48 0 C48 15.84 48 31.68 48 48 C32.16 48 16.32 48 0 48 C0 32.16 0 16.32 0 0 Z " fill="#082C2E" transform="translate(504,600)"/>
<path d="M0 0 C15.84 0 31.68 0 48 0 C48 15.84 48 31.68 48 48 C32.16 48 16.32 48 0 48 C0 32.16 0 16.32 0 0 Z " fill="#092B2E" transform="translate(744,552)"/>
<path d="M0 0 C15.84 0 31.68 0 48 0 C48 15.84 48 31.68 48 48 C32.16 48 16.32 48 0 48 C0 32.16 0 16.32 0 0 Z " fill="#0D3E37" transform="translate(552,552)"/>
<path d="M0 0 C15.84 0 31.68 0 48 0 C48 15.84 48 31.68 48 48 C32.16 48 16.32 48 0 48 C0 32.16 0 16.32 0 0 Z " fill="#0D3E36" transform="translate(456,552)"/>
<path d="M0 0 C15.84 0 31.68 0 48 0 C48 15.84 48 31.68 48 48 C32.16 48 16.32 48 0 48 C0 32.16 0 16.32 0 0 Z " fill="#29C6AC" transform="translate(648,552)"/>
<path d="M0 0 C15.84 0 31.68 0 48 0 C48 15.84 48 31.68 48 48 C32.16 48 16.32 48 0 48 C0 32.16 0 16.32 0 0 Z " fill="#146354" transform="translate(408,552)"/>
<path d="M0 0 C15.84 0 31.68 0 48 0 C48 15.84 48 31.68 48 48 C32.16 48 16.32 48 0 48 C0 32.16 0 16.32 0 0 Z " fill="#092B2E" transform="translate(792,504)"/>
<path d="M0 0 C15.84 0 31.68 0 48 0 C48 15.84 48 31.68 48 48 C32.16 48 16.32 48 0 48 C0 32.16 0 16.32 0 0 Z " fill="#2AC6AC" transform="translate(696,504)"/>
<path d="M0 0 C15.84 0 31.68 0 48 0 C48 15.84 48 31.68 48 48 C32.16 48 16.32 48 0 48 C0 32.16 0 16.32 0 0 Z " fill="#0D3E37" transform="translate(600,504)"/>
<path d="M0 0 C15.84 0 31.68 0 48 0 C48 15.84 48 31.68 48 48 C32.16 48 16.32 48 0 48 C0 32.16 0 16.32 0 0 Z " fill="#34E9CA" transform="translate(744,504)"/>
<path d="M0 0 C15.84 0 31.68 0 48 0 C48 15.84 48 31.68 48 48 C32.16 48 16.32 48 0 48 C0 32.16 0 16.32 0 0 Z " fill="#092B2E" transform="translate(840,456)"/>
<path d="M0 0 C15.84 0 31.68 0 48 0 C48 15.84 48 31.68 48 48 C32.16 48 16.32 48 0 48 C0 32.16 0 16.32 0 0 Z " fill="#0D3E37" transform="translate(648,456)"/>
<path d="M0 0 C15.84 0 31.68 0 48 0 C48 15.84 48 31.68 48 48 C32.16 48 16.32 48 0 48 C0 32.16 0 16.32 0 0 Z " fill="#34E9CA" transform="translate(792,456)"/>
<path d="M0 0 C15.84 0 31.68 0 48 0 C48 15.84 48 31.68 48 48 C32.16 48 16.32 48 0 48 C0 32.16 0 16.32 0 0 Z " fill="#A5FCF0" transform="translate(696,456)"/>
<path d="M0 0 C15.84 0 31.68 0 48 0 C48 15.84 48 31.68 48 48 C32.16 48 16.32 48 0 48 C0 32.16 0 16.32 0 0 Z " fill="#0D3E37" transform="translate(696,408)"/>
<path d="M0 0 C15.84 0 31.68 0 48 0 C48 15.84 48 31.68 48 48 C32.16 48 16.32 48 0 48 C0 32.16 0 16.32 0 0 Z " fill="#082C2E" transform="translate(888,408)"/>
<path d="M0 0 C15.84 0 31.68 0 48 0 C48 15.84 48 31.68 48 48 C32.16 48 16.32 48 0 48 C0 32.16 0 16.32 0 0 Z " fill="#34E9CA" transform="translate(840,408)"/>
<path d="M0 0 C15.84 0 31.68 0 48 0 C48 15.84 48 31.68 48 48 C32.16 48 16.32 48 0 48 C0 32.16 0 16.32 0 0 Z " fill="#A5FCF0" transform="translate(744,408)"/>
<path d="M0 0 C15.84 0 31.68 0 48 0 C48 15.84 48 31.68 48 48 C32.16 48 16.32 48 0 48 C0 32.16 0 16.32 0 0 Z " fill="#A5FCF1" transform="translate(888,360)"/>
<path d="M0 0 C15.84 0 31.68 0 48 0 C48 15.84 48 31.68 48 48 C32.16 48 16.32 48 0 48 C0 32.16 0 16.32 0 0 Z " fill="#0D3E37" transform="translate(744,360)"/>
<path d="M0 0 C15.84 0 31.68 0 48 0 C48 15.84 48 31.68 48 48 C32.16 48 16.32 48 0 48 C0 32.16 0 16.32 0 0 Z " fill="#092C2D" transform="translate(936,360)"/>
<path d="M0 0 C15.84 0 31.68 0 48 0 C48 15.84 48 31.68 48 48 C32.16 48 16.32 48 0 48 C0 32.16 0 16.32 0 0 Z " fill="#A5FCF0" transform="translate(792,360)"/>
<path d="M0 0 C15.84 0 31.68 0 48 0 C48 15.84 48 31.68 48 48 C32.16 48 16.32 48 0 48 C0 32.16 0 16.32 0 0 Z " fill="#2AC6AD" transform="translate(888,312)"/>
<path d="M0 0 C15.84 0 31.68 0 48 0 C48 15.84 48 31.68 48 48 C32.16 48 16.32 48 0 48 C0 32.16 0 16.32 0 0 Z " fill="#0D3E37" transform="translate(792,312)"/>
<path d="M0 0 C15.84 0 31.68 0 48 0 C48 15.84 48 31.68 48 48 C32.16 48 16.32 48 0 48 C0 32.16 0 16.32 0 0 Z " fill="#0D3E37" transform="translate(840,264)"/>
<path d="M0 0 C15.84 0 31.68 0 48 0 C48 15.51 48 31.02 48 47 C32.16 47 16.32 47 0 47 C0 31.49 0 15.98 0 0 Z " fill="#082C2D" transform="translate(600,697)"/>
<path d="M0 0 C15.84 0 31.68 0 48 0 C48 15.84 48 31.68 48 48 C32.16 48 16.32 48 0 48 C0 32.16 0 16.32 0 0 Z M2 1 C1.23317543 4.06729827 0.87407304 6.0648549 0.87060547 9.11010742 C0.86745331 9.90740768 0.86430115 10.70470795 0.86105347 11.52616882 C0.8630777 12.3773378 0.86510193 13.22850677 0.8671875 14.10546875 C0.86623077 14.98527908 0.86527405 15.86508942 0.86428833 16.77156067 C0.86360898 18.62659782 0.86544619 20.48163737 0.86962891 22.33666992 C0.87499979 25.18739089 0.86966583 28.03795568 0.86328125 30.88867188 C0.8639417 32.69010452 0.86522217 34.49153706 0.8671875 36.29296875 C0.86516327 37.15021042 0.86313904 38.00745209 0.86105347 38.89067078 C0.49417373 42.75628226 0.49417373 42.75628226 2 46 C3.34544327 46.09785341 4.69592563 46.12797985 6.04492188 46.12939453 C6.90251099 46.13254669 7.7601001 46.13569885 8.64367676 46.13894653 C10.04208801 46.13591019 10.04208801 46.13591019 11.46875 46.1328125 C12.41939331 46.13376923 13.37003662 46.13472595 14.3494873 46.13571167 C16.36368882 46.13639357 18.37789252 46.13453862 20.39208984 46.13037109 C23.48670355 46.12502298 26.5811721 46.13031577 29.67578125 46.13671875 C31.62760449 46.13605797 33.57942764 46.13477681 35.53125 46.1328125 C36.46352417 46.13483673 37.39579834 46.13686096 38.35632324 46.13894653 C39.21391235 46.13579437 40.07150146 46.13264221 40.95507812 46.12939453 C42.09305847 46.12820114 42.09305847 46.12820114 43.25402832 46.12698364 C45.02877312 46.18921087 45.02877312 46.18921087 46 45 C46.0927833 43.61839885 46.11747043 42.23211962 46.11352539 40.84741211 C46.11334412 39.50761292 46.11334412 39.50761292 46.11315918 38.14074707 C46.10804321 37.19582397 46.10292725 36.25090088 46.09765625 35.27734375 C46.09664917 34.41338989 46.09564209 33.54943604 46.09460449 32.65930176 C46.0893555 29.41868775 46.07539436 26.1780926 46.0625 22.9375 C46.041875 15.698125 46.02125 8.45875 46 1 C31.48 1 16.96 1 2 1 Z " fill="#836732" transform="translate(408,792)"/>
<path d="M0 0 C15.84 0 31.68 0 48 0 C48 15.84 48 31.68 48 48 C32.16 48 16.32 48 0 48 C0 32.16 0 16.32 0 0 Z M2 3 C0.95002895 5.65192082 0.87391353 8.18700795 0.87060547 11.01831055 C0.86745331 11.79559006 0.86430115 12.57286957 0.86105347 13.373703 C0.8630777 14.2029982 0.86510193 15.0322934 0.8671875 15.88671875 C0.86623077 16.74433304 0.86527405 17.60194733 0.86428833 18.48554993 C0.86360906 20.29350864 0.86544569 22.10146982 0.86962891 23.90942383 C0.87500042 26.6877178 0.8696653 29.46585155 0.86328125 32.24414062 C0.86394169 34.00000036 0.86522214 35.75585999 0.8671875 37.51171875 C0.86516327 38.34708664 0.86313904 39.18245453 0.86105347 40.0431366 C0.50759565 43.82816767 0.50759565 43.82816767 2 47 C3.41225046 47.0928726 4.82908934 47.11746772 6.24438477 47.11352539 C7.14524307 47.11344986 8.04610138 47.11337433 8.97425842 47.11329651 C10.4429966 47.10555458 10.4429966 47.10555458 11.94140625 47.09765625 C13.43751686 47.09553383 13.43751686 47.09553383 14.96385193 47.09336853 C18.16343124 47.08775114 21.36294169 47.07519571 24.5625 47.0625 C26.72591045 47.05748724 28.88932199 47.05292395 31.05273438 47.04882812 C36.36851325 47.03777607 41.68425171 47.02102104 47 47 C47.02527062 40.60962769 47.04283317 34.21926817 47.05493164 27.82885742 C47.05997308 25.65307127 47.06680607 23.47728853 47.07543945 21.30151367 C47.08751338 18.18146933 47.09323005 15.06146962 47.09765625 11.94140625 C47.10281754 10.96224747 47.10797882 9.98308868 47.11329651 8.97425842 C47.11337204 8.07340012 47.11344757 7.17254181 47.11352539 6.24438477 C47.115746 5.44718521 47.11796661 4.64998566 47.12025452 3.82862854 C47.20050456 1.98077719 47.20050456 1.98077719 46 1 C43.08971225 0.88641383 40.2040693 0.83581028 37.29296875 0.83203125 C36.41602859 0.82870285 35.53908844 0.82537445 34.63557434 0.82194519 C32.7752027 0.8168711 30.91482192 0.81453701 29.05444336 0.81469727 C26.20997012 0.81251722 23.36588858 0.79438457 20.52148438 0.77539062 C18.71614716 0.77245551 16.9108081 0.7704715 15.10546875 0.76855469 C14.22852859 0.76522629 13.35158844 0.76189789 12.44807434 0.75846863 C10.58770278 0.75339453 8.72732203 0.75105944 6.86694336 0.75122070 C4.02247012 0.74904065 1.17838858 0.73090801 -1.66601562 0.71191406 C-1.66601562 0.47460938 -1.66601562 0.23730469 -1.66601562 0 C0.22265625 0 2.11132812 0 4 0 C4 1.32 4 2.64 4 4 C3.34 3.34 2.68 2.68 2 2 C2 2.33 2 2.66 2 3 Z " fill="#44E2C5" transform="translate(552,600)"/>
<path d="M0 0 C0.66 0.33 1.32 0.66 2 1 C2 2.32 2 3.64 2 5 C0.35 4.67 -1.3 4.34 -3 4 C-2.01 2.68 -1.02 1.36 0 0 Z " fill="#1DCDAC" transform="translate(692,593)"/>
<path d="M0 0 C0.66 0.33 1.32 0.66 2 1 C2 2.32 2 3.64 2 5 C0.35 4.67 -1.3 4.34 -3 4 C-2.01 2.68 -1.02 1.36 0 0 Z " fill="#1DCDAC" transform="translate(740,545)"/>
<path d="M0 0 C0.66 0.33 1.32 0.66 2 1 C2 2.32 2 3.64 2 5 C0.35 4.67 -1.3 4.34 -3 4 C-2.01 2.68 -1.02 1.36 0 0 Z " fill="#1DCDAC" transform="translate(788,497)"/>
<path d="M0 0 C0.66 0.33 1.32 0.66 2 1 C2 2.32 2 3.64 2 5 C0.35 4.67 -1.3 4.34 -3 4 C-2.01 2.68 -1.02 1.36 0 0 Z " fill="#1DCDAC" transform="translate(836,449)"/>
</svg>
